<svg width="30" height="30" viewBox="0 0 30 30" fill="none" xmlns="http://www.w3.org/2000/svg">
<path d="M25.3122 11.2506C25.5615 11.2506 25.7997 11.1512 25.9759 10.9768L29.7258 7.22694C30.0914 6.86133 30.0914 6.26697 29.7258 5.90136L25.9759 2.1496C25.7997 1.97523 25.5615 1.87586 25.3122 1.87586H15V0.938386C15 0.420902 14.58 0.000915527 14.0625 0.000915527C13.545 0.000915527 13.1251 0.420902 13.1251 0.938386V7.50068H4.68782C4.43846 7.50068 4.20034 7.60005 4.02409 7.77442L0.27421 11.5243C-0.0914034 11.8899 -0.0914034 12.4843 0.27421 12.8499L4.02409 16.5998C4.20034 16.776 4.43846 16.8754 4.68782 16.8754H13.1251V29.0625C13.1251 29.58 13.545 30 14.0625 30C14.58 30 15 29.58 15 29.0625V20.6253H21.5623C21.7648 20.6253 21.9635 20.5597 22.1248 20.4378L25.8747 17.6254C26.1109 17.4491 26.2496 17.1698 26.2496 16.8754C26.2496 16.581 26.1109 16.3017 25.8747 16.1254L22.1248 13.313C21.9635 13.1911 21.7648 13.1255 21.5623 13.1255H15V11.2506H25.3122ZM15 3.7508H24.9241L27.7365 6.56321L24.9241 9.37562H15V3.7508ZM13.1251 15.0004H5.07594L2.26352 12.188L5.07594 9.37562H13.1251V15.0004ZM21.2492 15.0004L23.7504 16.8754L21.2492 18.7503H15V15.0004H21.2492Z" fill="white"/>
</svg>
