<svg width="28" height="28" viewBox="0 0 28 28" fill="none" xmlns="http://www.w3.org/2000/svg">
<path d="M27.125 26.25H26.4957L25.7864 23.4128C25.689 23.0233 25.339 22.75 24.9375 22.75H21.875V21.4375H24.5C24.9833 21.4375 25.375 21.0457 25.375 20.5625C25.375 20.0793 24.9833 19.6875 24.5 19.6875V19.25C24.5 13.7549 20.2568 9.23289 14.875 8.78675V7.4375H16.1875C16.6708 7.4375 17.0625 7.04572 17.0625 6.5625C17.0625 6.07928 16.6708 5.6875 16.1875 5.6875H11.8125C11.3292 5.6875 10.9375 6.07928 10.9375 6.5625C10.9375 7.04572 11.3292 7.4375 11.8125 7.4375H13.125V8.78675C7.7432 9.23289 3.5 13.7549 3.5 19.25V19.6875C3.01673 19.6875 2.625 20.0793 2.625 20.5625C2.625 21.0457 3.01673 21.4375 3.5 21.4375H6.125V22.75H3.0625C2.66098 22.75 2.31104 23.0233 2.21364 23.4128L1.50429 26.25H0.875C0.391727 26.25 0 26.6418 0 27.125C0 27.6082 0.391727 28 0.875 28H27.125C27.6083 28 28 27.6082 28 27.125C28 26.6418 27.6083 26.25 27.125 26.25ZM5.25 19.25C5.25 14.4253 9.1752 10.5 14 10.5C18.8248 10.5 22.75 14.4253 22.75 19.25V19.6875C20.0906 19.6875 6.0322 19.6875 5.25 19.6875V19.25ZM7.875 21.4375H20.125V22.75H7.875V21.4375ZM3.30816 26.25L3.74566 24.5H24.2543L24.6918 26.25H3.30816Z" fill="white"/>
<path d="M0.875 14.875H2.625C3.10827 14.875 3.5 14.4832 3.5 14C3.5 13.5168 3.10827 13.125 2.625 13.125H0.875C0.391727 13.125 0 13.5168 0 14C0 14.4832 0.391727 14.875 0.875 14.875Z" fill="white"/>
<path d="M25.375 14.875H27.125C27.6083 14.875 28 14.4832 28 14C28 13.5168 27.6083 13.125 27.125 13.125H25.375C24.8917 13.125 24.5 13.5168 24.5 14C24.5 14.4832 24.8917 14.875 25.375 14.875Z" fill="white"/>
<path d="M5.33795 6.5754C5.67964 6.91709 6.23368 6.91714 6.57537 6.5754C6.91711 6.23366 6.91711 5.67967 6.57537 5.33799L5.3379 4.10046C4.99621 3.75878 4.44217 3.75872 4.10048 4.10046C3.75874 4.44221 3.75874 4.99619 4.10048 5.33788L5.33795 6.5754Z" fill="white"/>
<path d="M22.0433 6.83166C22.2672 6.83166 22.4911 6.74618 22.6619 6.57539L23.8994 5.33798C24.2412 4.99624 24.2412 4.44225 23.8994 4.10057C23.5578 3.75888 23.0037 3.75888 22.662 4.10057L21.4245 5.33798C20.8718 5.89071 21.2708 6.83166 22.0433 6.83166Z" fill="white"/>
<path d="M14 3.5C14.4833 3.5 14.875 3.10822 14.875 2.625V0.875C14.875 0.391781 14.4833 0 14 0C13.5167 0 13.125 0.391781 13.125 0.875V2.625C13.125 3.10822 13.5167 3.5 14 3.5Z" fill="white"/>
</svg>
