<svg width="36" height="32" viewBox="0 0 36 32" fill="none" xmlns="http://www.w3.org/2000/svg">
<path d="M17.9998 5.16808C18.388 5.16808 18.7029 4.85322 18.7029 4.46496V0.88324C18.7029 0.494974 18.3881 0.180115 17.9998 0.180115C17.6114 0.180115 17.2966 0.494904 17.2966 0.88324V4.46496C17.2967 4.85322 17.6115 5.16808 17.9998 5.16808Z" fill="white"/>
<path d="M12.7134 6.32311C12.8471 6.53525 13.0754 6.6514 13.3089 6.6514C13.437 6.6514 13.5668 6.61639 13.6831 6.54305C14.0116 6.33605 14.1101 5.90187 13.9031 5.5733L12.0297 2.60084C11.8226 2.27234 11.3884 2.17383 11.06 2.3809C10.7315 2.5879 10.633 3.02208 10.84 3.35065L12.7134 6.32311Z" fill="white"/>
<path d="M22.3188 6.54326C22.4352 6.61646 22.5648 6.6514 22.6927 6.6514C22.9263 6.6514 23.1548 6.53511 23.2884 6.32283L25.1599 3.35038C25.3667 3.02174 25.2681 2.5877 24.9394 2.3807C24.6107 2.17391 24.1768 2.27263 23.9698 2.60113L22.0984 5.57358C21.8915 5.90229 21.9903 6.33633 22.3188 6.54326Z" fill="white"/>
<path d="M35.7733 16.7335L34.5517 14.5752C34.3603 14.2372 33.9312 14.1183 33.5935 14.3097C33.2555 14.501 33.1367 14.93 33.328 15.2679L34.5491 17.4252C34.6103 17.5336 34.5944 17.6382 34.5795 17.6908C34.5652 17.7415 34.5257 17.8351 34.4223 17.8922L32.5395 18.9352C32.3722 19.0276 32.1539 18.9692 32.0627 18.8083L31.5843 17.9622C31.5824 17.9584 31.5801 17.9549 31.5781 17.9511L26.633 9.20469C26.5719 9.09704 26.5874 8.99382 26.602 8.94186C26.6161 8.89159 26.6554 8.79871 26.7587 8.74154L28.6438 7.69839C28.8132 7.60459 29.0262 7.66154 29.1188 7.82565L30.2208 9.77281C30.4122 10.1108 30.8413 10.2296 31.1791 10.0384C31.517 9.84713 31.6359 9.41809 31.4446 9.08017L30.343 7.13385C29.8732 6.30092 28.8057 6.00217 27.9632 6.46785L26.0782 7.511C25.6704 7.73642 25.3757 8.10901 25.2486 8.56035C25.1286 8.98588 25.1715 9.43011 25.3679 9.81999L24.3295 10.1209C23.8872 10.2489 23.6187 10.3183 23.4697 10.3183C23.4691 10.3183 23.4685 10.3183 23.468 10.3183C23.3654 10.3179 23.2535 10.2788 22.9342 10.1578C22.7894 10.103 22.609 10.0347 22.3873 9.95731L20.5476 9.31417C19.5301 8.95881 19.0712 8.97793 18.4063 9.03861L15.2692 9.31937C13.8392 9.44607 12.9274 9.76867 12.4241 10.3281L10.6363 9.81015C10.8287 9.42196 10.87 8.98201 10.7512 8.56035C10.624 8.10929 10.3296 7.73678 9.92211 7.51135L8.03816 6.46771C7.19497 6.0016 6.12685 6.3005 5.65696 7.13321L0.228549 16.7325C-0.00383378 17.1416 -0.0613494 17.6175 0.06676 18.0725C0.194026 18.5243 0.488635 18.8973 0.895744 19.1224L2.7797 20.1659C3.04906 20.3148 3.34171 20.3856 3.63048 20.3856C4.24396 20.3856 4.84035 20.0664 5.1609 19.5005L5.35996 19.1484C5.90319 19.3875 6.35931 19.7349 6.67016 20.1462C6.36655 20.501 6.1753 20.9389 6.12165 21.4151C6.05078 22.0449 6.22867 22.6628 6.62256 23.1553C7.01307 23.6436 7.57149 23.9517 8.19594 24.0243C8.12985 24.6488 8.30844 25.2606 8.69931 25.7477C9.10332 26.2528 9.67433 26.5475 10.2716 26.617C10.2058 27.2405 10.3838 27.8518 10.7735 28.3392C11.1638 28.8286 11.7223 29.1373 12.3474 29.2099C12.2812 29.8348 12.4598 30.447 12.8507 30.9341C13.3166 31.5166 14.0044 31.8199 14.6987 31.8198C15.2171 31.8198 15.7391 31.6508 16.1749 31.3027L17.6471 30.1247C17.764 30.0314 17.8702 29.9282 17.9658 29.8171L18.8067 30.4889C19.2416 30.836 19.7624 31.0046 20.2801 31.0045C20.9747 31.0044 21.6637 30.7008 22.1302 30.1178C22.3761 29.8104 22.5317 29.4595 22.6021 29.0974C22.8479 29.1824 23.1075 29.2264 23.3722 29.2263C23.4609 29.2263 23.5502 29.2214 23.6398 29.2115C24.2698 29.1415 24.8331 28.8317 25.2246 28.3408C25.6161 27.853 25.7947 27.2412 25.7287 26.6168C26.3256 26.5471 26.8969 26.2525 27.3021 25.7476C27.7057 25.243 27.8677 24.6217 27.8043 24.0242C28.4284 23.9515 28.9865 23.6434 29.3761 23.1562C29.7703 22.665 29.9489 22.048 29.8791 21.4187C29.8261 20.941 29.6347 20.5017 29.3305 20.1459C29.6405 19.7348 30.0957 19.3869 30.6393 19.1479L30.8387 19.5008C31.1591 20.0665 31.7552 20.3855 32.3688 20.3855C32.6577 20.3854 32.9507 20.3147 33.2203 20.1656L35.1032 19.1226C35.5102 18.8976 35.8046 18.5252 35.9324 18.0742C36.0612 17.6196 36.0049 17.1437 35.7733 16.7335ZM3.93704 18.808C3.84564 18.9694 3.62717 19.0276 3.4606 18.9354L1.57672 17.892C1.47385 17.8351 1.43462 17.7418 1.42028 17.6913C1.40558 17.6389 1.3899 17.5349 1.45192 17.4259L6.88117 7.82474C6.94332 7.71456 7.06046 7.65282 7.1821 7.65282C7.24131 7.65282 7.30149 7.66738 7.35704 7.6981L9.24043 8.7414C9.24064 8.74154 9.24085 8.74168 9.24106 8.74175C9.34414 8.79878 9.38331 8.89166 9.39751 8.94193C9.41214 8.99389 9.4276 9.09711 9.3658 9.20596L3.93704 18.808ZM9.06803 22.4263C8.86974 22.5851 8.61936 22.6569 8.36349 22.6284C8.10749 22.6 7.87932 22.4753 7.72084 22.2771C7.562 22.0785 7.49042 21.8282 7.51918 21.5724C7.5478 21.3176 7.6726 21.0906 7.87187 20.932L10.5042 18.8279C10.9174 18.498 11.5221 18.5659 11.8523 18.9783C12.0111 19.1768 12.0827 19.4267 12.0541 19.6817C12.0255 19.9359 11.9006 20.1627 11.7025 20.3203C11.6981 20.3238 11.6944 20.3276 11.6902 20.3312L9.06866 22.4258C9.06845 22.4259 9.06824 22.4261 9.06803 22.4263ZM9.79674 24.8685C9.63805 24.6707 9.56633 24.4214 9.59467 24.1666C9.623 23.9116 9.74795 23.6835 9.94637 23.5244L9.94658 23.5243C9.94672 23.5242 9.94686 23.524 9.947 23.524C9.94707 23.524 9.94707 23.5239 9.94714 23.5238L13.7388 20.4945C14.1519 20.1646 14.7568 20.2319 15.0869 20.6449C15.2455 20.8431 15.3171 21.0927 15.2888 21.3477C15.2604 21.6029 15.1351 21.831 14.9362 21.9899L11.1455 25.0181C10.7319 25.3482 10.1272 25.2816 9.79674 24.8685ZM12.5149 27.8139C12.2589 27.7855 12.031 27.6606 11.8723 27.4616C11.7137 27.2634 11.6421 27.0138 11.6704 26.7588C11.6988 26.5038 11.8239 26.2759 12.0226 26.117C12.0227 26.1169 12.0229 26.1167 12.023 26.1166L14.647 24.0204C14.6501 24.0181 14.6534 24.016 14.6565 24.0136C15.0686 23.6837 15.6733 23.7509 16.0037 24.1628C16.1626 24.3613 16.2342 24.6116 16.2054 24.8674C16.1768 25.1222 16.052 25.3492 15.8528 25.5078L13.2205 27.6119C13.0216 27.7707 12.7709 27.8421 12.5149 27.8139ZM17.1216 28.3847C17.0931 28.6397 16.9682 28.8673 16.7692 29.0262L15.2969 30.2044C14.8833 30.5345 14.2786 30.4681 13.9483 30.0549C13.7896 29.8573 13.7178 29.6078 13.7461 29.3525C13.7745 29.0972 13.8993 28.8695 14.0973 28.7113C14.0975 28.7111 14.0978 28.7109 14.098 28.7108L15.57 27.5342C15.5707 27.5335 15.5716 27.533 15.5724 27.5325C15.9856 27.2027 16.5903 27.2703 16.9205 27.6829C17.0787 27.8807 17.1502 28.1299 17.1216 28.3847ZM28.2787 22.277C28.1202 22.4752 27.8919 22.6 27.636 22.6284C27.3803 22.6572 27.1298 22.5852 26.9315 22.4263C26.9314 22.4262 26.9313 22.4261 26.9311 22.426C26.9311 22.426 26.9309 22.4259 26.9308 22.4258L25.0494 20.9226C24.746 20.6802 24.3036 20.7297 24.0613 21.033C23.8189 21.3363 23.8683 21.7788 24.1716 22.0212L26.0524 23.5239C26.465 23.8543 26.533 24.4579 26.2047 24.8684C25.8733 25.2813 25.2686 25.3484 24.8557 25.0178L22.8149 23.3892C22.5114 23.147 22.069 23.1967 21.8268 23.5002C21.5846 23.8037 21.6343 24.2461 21.9378 24.4883L23.9777 26.1161C24.1764 26.2753 24.3015 26.5035 24.3299 26.7588C24.3583 27.0137 24.2865 27.263 24.1265 27.4623C23.9684 27.6606 23.7404 27.7854 23.4846 27.8139C23.2284 27.8421 22.9777 27.7706 22.7796 27.6124L21.7641 26.8003C21.7624 26.7989 21.7608 26.7974 21.7591 26.796L20.9011 26.1101L20.7407 25.9819C20.4373 25.7393 19.9949 25.7886 19.7525 26.0918C19.7222 26.1298 19.6964 26.1698 19.6752 26.2115C19.5733 26.4104 19.575 26.6438 19.6706 26.8395C19.7148 26.9301 19.7785 27.0129 19.8625 27.08L20.8835 27.8966C21.2933 28.2275 21.3603 28.829 21.0322 29.2393C20.7019 29.6521 20.0971 29.7196 19.6842 29.3901L18.5258 28.4647C18.574 27.8629 18.3957 27.276 18.0185 26.8044C17.7841 26.5114 17.4934 26.2895 17.1741 26.1406C17.4081 25.816 17.5566 25.4346 17.6028 25.0246C17.6736 24.3949 17.4958 23.777 17.1012 23.2836C16.8667 22.9914 16.5763 22.7699 16.2576 22.6214C16.492 22.2958 16.6406 21.9137 16.6863 21.503C16.7563 20.8747 16.5782 20.258 16.1851 19.7663C15.5085 18.9205 14.3644 18.6633 13.4121 19.0675C13.3359 18.7175 13.1802 18.3873 12.9503 18.0998C12.1362 17.0825 10.6454 16.9161 9.62652 17.729L7.74383 19.2339C7.31809 18.6906 6.73935 18.2401 6.05506 17.9187L9.92781 11.0688L11.9898 11.6663C11.9992 11.7766 12.0171 11.8926 12.047 12.0155C12.5461 14.0678 14.4357 15.024 16.9784 14.5117C19.1208 14.0806 20.0028 14.7227 21.7594 16.0019C21.9417 16.1346 22.131 16.2725 22.3292 16.4145C23.5926 17.3208 24.9425 18.3861 25.8477 19.1081L28.13 20.9322C28.3283 21.0904 28.4531 21.3182 28.4814 21.5737C28.5098 21.829 28.4381 22.0785 28.2787 22.277ZM28.2568 19.2335L26.7252 18.0094C25.8075 17.2774 24.4385 16.1972 23.1486 15.2717C22.9531 15.1318 22.7667 14.996 22.5873 14.8653C20.7658 13.5389 19.4493 12.5805 16.7009 13.1333C15.8597 13.3028 13.8555 13.501 13.4135 11.6836C13.3512 11.427 13.4145 11.3388 13.4414 11.3012C13.5354 11.1701 13.9137 10.8511 15.3937 10.7201L18.5341 10.439C19.0458 10.3923 19.3025 10.3689 20.0835 10.6417L21.9235 11.2849C22.128 11.3563 22.2916 11.4182 22.4359 11.4729C23.3218 11.8085 23.5566 11.8084 24.7205 11.4716L26.077 11.0785L29.9445 17.9192C29.26 18.2403 28.6818 18.6905 28.2568 19.2335Z" fill="white"/>
<path d="M32.3838 12.8781C32.7721 12.8781 33.0869 12.5622 33.0869 12.1739C33.0869 11.7856 32.7721 11.4708 32.3838 11.4708C31.9955 11.4708 31.6807 11.7856 31.6807 12.1739V12.1759C31.6807 12.5642 31.9955 12.8781 32.3838 12.8781Z" fill="white"/>
</svg>
