<svg width="23" height="12" viewBox="0 0 23 12" fill="none" xmlns="http://www.w3.org/2000/svg">
<path d="M22.795 10.4723C22.7332 10.3823 22.3508 9.65975 20.5107 8.17464C18.5843 6.61952 18.843 6.87204 21.1633 4.18309C22.5765 2.54547 23.1415 1.54539 22.9647 1.11786C22.7965 0.710332 21.7571 0.81784 21.7571 0.81784L18.3011 0.835341C18.3011 0.835341 18.0452 0.805339 17.854 0.904097C17.6685 1.0016 17.5492 1.22662 17.5492 1.22662C17.5492 1.22662 17.0015 2.49421 16.2712 3.57179C14.7315 5.84571 14.1147 5.96572 13.8632 5.82446C13.2781 5.49569 13.4247 4.50186 13.4247 3.79681C13.4247 1.5929 13.8085 0.674079 12.6757 0.436562C12.299 0.357806 12.023 0.305302 11.0613 0.296551C9.8278 0.285301 8.78266 0.300302 8.1918 0.55157C7.7979 0.719083 7.49457 1.09286 7.68002 1.11411C7.9086 1.14036 8.42613 1.23537 8.70072 1.5604C9.05581 1.97918 9.04287 2.92175 9.04287 2.92175C9.04287 2.92175 9.24701 5.51569 8.56702 5.83821C8.0998 6.05948 7.46006 5.6082 6.08715 3.54429C5.38416 2.48796 4.85224 1.31913 4.85224 1.31913C4.85224 1.31913 4.75017 1.10161 4.5676 0.985353C4.34621 0.844092 4.03568 0.799089 4.03568 0.799089L0.749314 0.81659C0.749314 0.81659 0.256215 0.829091 0.0750765 1.01536C-0.0859355 1.18162 0.062138 1.52414 0.062138 1.52414C0.062138 1.52414 2.63545 6.75828 5.54805 9.39723C8.22056 11.8162 11.2539 11.6574 11.2539 11.6574H12.6283C12.6283 11.6574 13.0437 11.6174 13.2551 11.4186C13.4506 11.2361 13.4434 10.8936 13.4434 10.8936C13.4434 10.8936 13.4161 9.28972 14.2729 9.05345C15.1168 8.82094 16.2007 10.6036 17.3494 11.2899C18.2177 11.8087 18.8775 11.6949 18.8775 11.6949L21.9497 11.6574C21.9497 11.6574 23.5569 11.5711 22.795 10.4723Z" fill="#000000"/>
</svg>
